<svg xmlns="http://www.w3.org/2000/svg" viewBox="0 0 192 192" width="192" height="192">
  <!-- 背景 -->
  <rect width="192" height="192" rx="32" fill="#1E3A8A"/>
  
  <!-- ガラスの効果 -->
  <circle cx="130" cy="50" r="70" fill="#38BDF8" opacity="0.1"/>
  
  <!-- 探偵帽 -->
  <path d="M55,65 C55,45 96,45 96,45 C96,45 137,45 137,65 L145,65 C149,65 149,72 145,72 L47,72 C43,72 43,65 47,65 L55,65 Z" fill="#0F172A"/>
  
  <!-- 帽子のバンド -->
  <rect x="47" y="65" width="98" height="7" fill="#38BDF8"/>
  
  <!-- 虫眼鏡 -->
  <circle cx="105" cy="105" r="22" fill="none" stroke="#F59E0B" stroke-width="6"/>
  <line x1="120" y1="120" x2="138" y2="138" stroke="#F59E0B" stroke-width="6" stroke-linecap="round"/>
  
  <!-- 数字5 -->
  <text x="69" y="130" font-family="Montserrat, sans-serif" font-weight="bold" font-size="55" fill="white">5</text>
  
  <!-- キラキラエフェクト -->
  <circle cx="50" cy="50" r="3" fill="white" opacity="0.7"/>
  <circle cx="145" cy="40" r="2" fill="white" opacity="0.5"/>
  <circle cx="130" cy="130" r="2" fill="white" opacity="0.6"/>
  <circle cx="80" cy="150" r="1.5" fill="white" opacity="0.5"/>
</svg>