<svg xmlns="http://www.w3.org/2000/svg" viewBox="0 0 144 144" width="144" height="144">
  <!-- 背景 -->
  <rect width="144" height="144" rx="24" fill="#1E3A8A"/>
  
  <!-- ガラスの効果 -->
  <circle cx="100" cy="40" r="50" fill="#38BDF8" opacity="0.1"/>
  
  <!-- 探偵帽 -->
  <path d="M40,50 C40,35 72,35 72,35 C72,35 104,35 104,50 L110,50 C114,50 114,55 110,55 L34,55 C30,55 30,50 34,50 L40,50 Z" fill="#0F172A"/>
  
  <!-- 帽子のバンド -->
  <rect x="34" y="50" width="76" height="5" fill="#38BDF8"/>
  
  <!-- 虫眼鏡 -->
  <circle cx="80" cy="80" r="16" fill="none" stroke="#F59E0B" stroke-width="5"/>
  <line x1="91" y1="91" x2="105" y2="105" stroke="#F59E0B" stroke-width="5" stroke-linecap="round"/>
  
  <!-- 数字5 -->
  <text x="50" y="95" font-family="Montserrat, sans-serif" font-weight="bold" font-size="42" fill="white">5</text>
  
  <!-- キラキラエフェクト -->
  <circle cx="40" cy="40" r="2" fill="white" opacity="0.7"/>
  <circle cx="110" cy="30" r="1.5" fill="white" opacity="0.5"/>
  <circle cx="100" cy="100" r="1.5" fill="white" opacity="0.6"/>
</svg>