<?xml version="1.0" encoding="UTF-8" standalone="no"?>
<svg width="512" height="512" viewBox="0 0 512 512" fill="none" xmlns="http://www.w3.org/2000/svg">
  <!-- ベース背景色 -->
  <rect width="512" height="512" fill="#1E3A8A"/>
  
  <!-- 探偵帽アイコン -->
  <g transform="translate(106, 106) scale(0.6)">
    <!-- 帽子 -->
    <path d="M256 96C256 78.3 270.3 64 288 64H424C441.7 64 456 78.3 456 96C456 113.7 441.7 128 424 128H288C270.3 128 256 113.7 256 96zM128 256C128 238.3 142.3 224 160 224H416C433.7 224 448 238.3 448 256C448 273.7 433.7 288 416 288H384L384 464C384 490.5 362.5 512 336 512H240C213.5 512 192 490.5 192 464L192 288H160C142.3 288 128 273.7 128 256zM256 464C256 472.8 247.2 480 240 480C232.8 480 224 472.8 224 464V288H256L256 464zM352 464V288H320L320 464C320 472.8 328.8 480 336 480C343.2 480 352 472.8 352 464zM74.66 182.6C96.91 160.3 133.1 160.3 155.3 182.6L186.7 214C199.9 227.1 204.6 246.3 199.8 264L232.7 296.9C228.3 297.6 224.1 298.9 220.1 300.9L183.7 264.4C166 269.3 146.8 264.6 133.7 251.5L102.3 220.1C89.17 206.1 89.17 186.9 102.3 173.7C115.4 160.6 135.5 160.6 148.6 173.7L155.3 180.4L162 173.7C174.1 160.6 194.3 160.6 207.3 173.7C220.4 186.9 220.4 206.1 207.3 220.1L204.3 223.1C210.3 231.2 214.3 240.4 215.7 250.2L229.9 235.9C252.1 213.7 288.3 213.7 310.6 235.9L341.3 266.7C360.6 285.9 360.6 317.1 341.3 336.3L283.3 394.3C276.5 401.2 267.8 405.7 258.3 407.2L171.9 420.7C149.1 424.6 128.4 407.5 128.4 384.2c0-4.613 .717-9.208 2.138-13.59L141.7 333.9C144 327.7 147.7 322.1 152.3 317.5L162.1 307.7C157.1 304.1 153.4 298.4 152.1 292.3C151.8 290.9 151.8 289.5 151.8 288H102.9C68.29 288 40 259.7 40 225.1C40 213.1 43.66 201 50.67 190.6L74.66 182.6zM235.9 227.1L228.7 235.2C228.2 235.6 227.8 236.1 227.4 236.6L200.1 264L194.9 240.2C193.7 235.3 191.7 230.7 188.9 226.6C190.5 227.5 192.3 227.1 193.9 227.1C194.6 227.1 195.3 227.8 195.9 227.1H235.9z" fill="#F8FAFC"/>
  </g>
  
  <!-- 虫眼鏡アイコン -->
  <g transform="translate(256, 256) rotate(45) translate(-256, -256) translate(100, 100) scale(0.6)">
    <circle cx="256" cy="256" r="128" stroke="#38BDF8" stroke-width="32" fill="none"/>
    <line x1="356" y1="356" x2="448" y2="448" stroke="#38BDF8" stroke-width="32" stroke-linecap="round"/>
  </g>
  
  <!-- テキスト -->
  <text x="256" y="400" font-family="Arial, sans-serif" font-size="48" font-weight="bold" fill="#F8FAFC" text-anchor="middle">5分探偵</text>
</svg>